<svg xmlns="http://www.w3.org/2000/svg" viewBox="0 0 520 120" width="520" height="120" role="img" aria-label="Kwanzou  Crafted to Shine">
  <defs>
    <linearGradient id="kg" x1="0%" y1="0%" x2="100%" y2="100%">
      <stop offset="0%" stop-color="#F5E6B8"/>
      <stop offset="35%" stop-color="#E8D08A"/>
      <stop offset="65%" stop-color="#C9A962"/>
      <stop offset="100%" stop-color="#8B7128"/>
    </linearGradient>
    <linearGradient id="kgh" x1="0%" y1="50%" x2="100%" y2="50%">
      <stop offset="0%" stop-color="#A8893E"/>
      <stop offset="50%" stop-color="#F0DCA0"/>
      <stop offset="100%" stop-color="#A8893E"/>
    </linearGradient>
    <radialGradient id="gem" cx="42%" cy="32%" r="68%">
      <stop offset="0%" stop-color="#FFFFFF"/>
      <stop offset="35%" stop-color="#F5E6B8"/>
      <stop offset="100%" stop-color="#9A7B30"/>
    </radialGradient>
    <filter id="soft" x="-20%" y="-20%" width="140%" height="140%">
      <feDropShadow dx="0" dy="2" stdDeviation="2.5" flood-color="#2C2420" flood-opacity="0.18"/>
    </filter>
  </defs>

  <g transform="translate(58, 60)" filter="url(#soft)">
    <circle r="46" fill="none" stroke="url(#kg)" stroke-width="3"/>
    <circle r="40" fill="none" stroke="url(#kgh)" stroke-width="1" opacity="0.55"/>
    <path fill="url(#kg)" d="M -8 -18 L -8 18 L -1 18 L -1 2 L 12 18 L 20 18 L 5 1 L 18 -18 L 10 -18 L -1 -2 L -1 -18 Z"/>
    <path d="M -5 -46 L 0 -58 L 5 -46 Z" fill="url(#gem)" stroke="url(#kg)" stroke-width="1.2"/>
    <circle cy="-58" r="5.5" fill="url(#gem)" stroke="url(#kg)" stroke-width="1.4"/>
    <path d="M -18 -8 L -24 -2 L -18 4" fill="none" stroke="#F0DCA0" stroke-width="1.5" stroke-linecap="round" opacity="0.9"/>
    <path d="M 18 10 L 24 16 L 18 22" fill="none" stroke="#F0DCA0" stroke-width="1.2" stroke-linecap="round" opacity="0.75"/>
  </g>

  <text x="118" y="46" font-family="Georgia, 'Times New Roman', serif" font-size="34" font-weight="700" fill="#2C2420" letter-spacing="5">KWANZOU</text>
  <text x="118" y="66" font-family="Georgia, serif" font-size="12" font-weight="700" fill="url(#kg)" letter-spacing="7">ACCESSORIES</text>
  <path d="M 118 74 L 132 68 L 146 74 L 160 68 L 174 74" fill="none" stroke="url(#kgh)" stroke-width="1.6" stroke-linecap="round"/>
  <circle cx="146" cy="71" r="2.2" fill="url(#kg)"/>
  <text x="118" y="92" font-family="Georgia, 'Times New Roman', serif" font-size="11" font-weight="600" fill="#2C2420" letter-spacing="2.5">Crafted to Shine</text>

  <path d="M 248 52 L 249 55 L 252 55.5 L 249.8 57.5 L 250.5 60.5 L 248 59 L 245.5 60.5 L 246.2 57.5 L 244 55.5 L 247 55 Z" fill="url(#kg)"/>
  <path d="M 108 52 L 109 55 L 112 55.5 L 109.8 57.5 L 110.5 60.5 L 108 59 L 105.5 60.5 L 106.2 57.5 L 104 55.5 L 107 55 Z" fill="url(#kg)"/>
</svg>
