<svg xmlns="http://www.w3.org/2000/svg" viewBox="0 0 96 96" width="96" height="96" role="img" aria-label="Kwanzou">
  <defs>
    <linearGradient id="g" x1="0%" y1="0%" x2="100%" y2="100%">
      <stop offset="0%" stop-color="#E8D08A"/><stop offset="50%" stop-color="#C9A962"/><stop offset="100%" stop-color="#A8893E"/>
    </linearGradient>
    <radialGradient id="pearl" cx="40%" cy="35%" r="65%">
      <stop offset="0%" stop-color="#FFF"/><stop offset="100%" stop-color="#E5DDD0"/>
    </radialGradient>
  </defs>
  <rect width="96" height="96" rx="18" fill="#F5F0EB"/>
  <g transform="translate(48, 44)">
    <circle r="36" fill="none" stroke="url(#g)" stroke-width="1.5" opacity="0.8"/>
    <g fill="#2C2420" transform="scale(0.52)">
      <ellipse cx="14" cy="-28" rx="13" ry="11"/>
      <path d="M 26 -36 C 10 -36, -2 -26, -6 -12 C -9 -2, -6 8, 2 12 C 8 15, 14 14, 18 10 C 20 6, 18 0, 14 -6 C 10 -14, 16 -24, 26 -28 Z"/>
      <path d="M 6 12 C 4 20, 6 28, 12 34 C 20 40, 34 42, 44 38 C 52 35, 56 30, 54 24 C 48 26, 38 28, 28 24 Z"/>
      <path d="M 18 10 C 14 4, 8 0, 2 -4 C -2 -6, -6 -4, -8 0 C -10 6, -8 12, -2 16 C 2 18, 8 16, 12 12 Z"/>
    </g>
    <circle cx="-3" cy="-3" r="5.5" fill="none" stroke="url(#g)" stroke-width="1.8"/>
    <circle cx="-3" cy="5" r="1.8" fill="url(#pearl)" stroke="url(#g)" stroke-width="0.9"/>
    <path d="M 2 8 Q 10 18 18 12" fill="none" stroke="url(#g)" stroke-width="1.4"/>
    <ellipse cx="10" cy="16" rx="4" ry="5" fill="url(#pearl)" stroke="url(#g)" stroke-width="1.2"/>
    <ellipse cx="-3" cy="18" rx="6" ry="2" fill="none" stroke="url(#g)" stroke-width="1.6"/>
  </g>
</svg>
