<svg xmlns="http://www.w3.org/2000/svg" viewBox="0 0 96 96" width="96" height="96" role="img" aria-label="Kwanzou V2">
  <defs>
    <linearGradient id="g" x1="0%" y1="0%" x2="100%" y2="100%">
      <stop offset="0%" stop-color="#FFF3CC"/><stop offset="50%" stop-color="#C9A962"/><stop offset="100%" stop-color="#8B7128"/>
    </linearGradient>
    <radialGradient id="core" cx="45%" cy="35%" r="65%">
      <stop offset="0%" stop-color="#FFF"/><stop offset="100%" stop-color="#9A7B30"/>
    </radialGradient>
  </defs>
  <rect width="96" height="96" rx="22" fill="#FAF8F5"/>
  <g transform="translate(48, 44)">
    <circle r="36" fill="none" stroke="url(#g)" stroke-width="2.8"/>
    <g fill="url(#g)">
      <rect x="-1" y="-38" width="2" height="8" rx="1"/>
      <rect x="-1" y="30" width="2" height="8" rx="1"/>
      <rect x="-38" y="-1" width="8" height="2" rx="1"/>
      <rect x="30" y="-1" width="8" height="2" rx="1"/>
      <rect x="-1" y="-38" width="2" height="8" rx="1" transform="rotate(45)"/>
      <rect x="-1" y="-38" width="2" height="8" rx="1" transform="rotate(90)"/>
      <rect x="-1" y="-38" width="2" height="8" rx="1" transform="rotate(135)"/>
    </g>
    <path d="M 0 -14 L 13 -7 L 13 7 L 0 14 L -13 7 L -13 -7 Z" fill="url(#core)" stroke="url(#g)" stroke-width="1.8"/>
    <path fill="#2C2420" d="M -6 -9 L -6 9 L -1 9 L -1 1 L 7 9 L 12 9 L 2 0 L 11 -9 L 6 -9 L -1 -1 L -1 -9 Z"/>
    <circle cx="-22" cy="30" r="3" fill="url(#core)" stroke="url(#g)" stroke-width="1"/>
    <circle cx="22" cy="30" r="3" fill="url(#core)" stroke="url(#g)" stroke-width="1"/>
  </g>
</svg>
