<svg xmlns="http://www.w3.org/2000/svg" viewBox="0 0 200 230" width="200" height="230" role="img" aria-label="Kwanzou">
  <defs>
    <linearGradient id="gold" x1="0%" y1="0%" x2="100%" y2="100%">
      <stop offset="0%" stop-color="#E8D08A"/><stop offset="50%" stop-color="#C9A962"/><stop offset="100%" stop-color="#A8893E"/>
    </linearGradient>
    <radialGradient id="pearl" cx="40%" cy="35%" r="65%">
      <stop offset="0%" stop-color="#FFFFFF"/><stop offset="100%" stop-color="#E5DDD0"/>
    </radialGradient>
  </defs>
  <rect width="200" height="230" rx="20" fill="#F5F0EB"/>
  <g transform="translate(100, 88)">
    <circle r="66" fill="none" stroke="url(#gold)" stroke-width="1.8" opacity="0.75"/>
    <g fill="#2C2420">
      <ellipse cx="16" cy="-36" rx="15" ry="13"/>
      <path d="M 30 -46 C 12 -46, -2 -32, -8 -16 C -12 -2, -8 10, 2 16 C 10 20, 18 18, 24 12 C 28 6, 24 -2, 18 -8 C 12 -18, 20 -30, 30 -36 Z"/>
      <path d="M 8 16 C 6 26, 10 36, 20 42 C 32 50, 52 52, 64 46 C 72 42, 76 34, 72 28 C 62 30, 48 34, 34 28 C 22 22, 14 18, 8 16 Z"/>
      <path d="M 24 12 C 18 4, 10 0, 2 -4 C -4 -6, -8 -4, -10 2 C -12 10, -10 18, -2 22 C 4 24, 12 22, 16 16 Z"/>
    </g>
    <circle cx="-6" cy="-6" r="8" fill="none" stroke="url(#gold)" stroke-width="2.5"/>
    <circle cx="-6" cy="6" r="2.8" fill="url(#pearl)" stroke="url(#gold)" stroke-width="1.2"/>
    <path d="M 0 16 Q 14 34 30 20" fill="none" stroke="url(#gold)" stroke-width="2"/>
    <ellipse cx="16" cy="32" rx="7" ry="9" fill="url(#pearl)" stroke="url(#gold)" stroke-width="1.8"/>
    <ellipse cx="-6" cy="36" rx="10" ry="3.2" fill="none" stroke="url(#gold)" stroke-width="2.5"/>
    <ellipse cx="-4" cy="24" rx="3" ry="2.2" fill="none" stroke="url(#gold)" stroke-width="1.6"/>
    <circle cx="-4" cy="24" r="1.4" fill="url(#pearl)"/>
  </g>
  <text x="100" y="180" text-anchor="middle" font-family="'Segoe Script', cursive" font-size="34" fill="#2C2420">Kwanzou</text>
  <text x="100" y="206" text-anchor="middle" font-family="Georgia, serif" font-size="11" font-weight="700" fill="url(#gold)" letter-spacing="6">ACCESSORIES</text>
</svg>
