<svg xmlns="http://www.w3.org/2000/svg" viewBox="0 0 96 96" width="96" height="96" role="img" aria-label="Kwanzou">
  <defs>
    <linearGradient id="g" x1="0%" y1="0%" x2="100%" y2="100%">
      <stop offset="0%" stop-color="#F7E8B8"/><stop offset="50%" stop-color="#C9A962"/><stop offset="100%" stop-color="#8F7428"/>
    </linearGradient>
    <radialGradient id="gem" cx="38%" cy="32%" r="68%">
      <stop offset="0%" stop-color="#FFF"/><stop offset="100%" stop-color="#9A7B30"/>
    </radialGradient>
  </defs>
  <rect width="96" height="96" rx="20" fill="#2C2420"/>
  <g transform="translate(48, 46)">
    <circle r="38" fill="none" stroke="url(#g)" stroke-width="2"/>
    <g fill="#FAF8F5" transform="scale(0.55)">
      <ellipse cx="14" cy="-30" rx="13" ry="11"/>
      <path d="M 26 -38 C 10 -38, -2 -28, -6 -14 C -9 -4, -6 6, 2 10 C 8 13, 14 12, 18 8 C 20 4, 18 -2, 14 -8 C 10 -16, 16 -26, 26 -30 Z"/>
      <path d="M 6 10 C 4 18, 6 26, 12 32 C 20 38, 34 40, 44 36 C 52 33, 56 28, 54 22 C 48 24, 38 26, 28 22 Z"/>
      <path d="M 18 8 C 14 2, 8 -2, 2 -6 C -2 -8, -6 -6, -8 -2 C -10 4, -8 10, -2 14 C 2 16, 8 14, 12 10 Z"/>
    </g>
    <circle cx="-3" cy="-4" r="7" fill="none" stroke="url(#g)" stroke-width="2"/>
    <ellipse cx="8" cy="14" rx="5" ry="6" fill="url(#gem)" stroke="url(#g)" stroke-width="1.5"/>
    <ellipse cx="-3" cy="16" rx="7" ry="2.5" fill="none" stroke="url(#g)" stroke-width="2"/>
  </g>
</svg>
