<svg xmlns="http://www.w3.org/2000/svg" viewBox="0 0 88 88" width="88" height="88" role="img" aria-label="Kwanzou">
  <defs>
    <linearGradient id="kg" x1="0%" y1="0%" x2="100%" y2="100%">
      <stop offset="0%" stop-color="#E8D5A0"/>
      <stop offset="50%" stop-color="#C9A962"/>
      <stop offset="100%" stop-color="#A8893E"/>
    </linearGradient>
    <radialGradient id="gem" cx="50%" cy="35%" r="65%">
      <stop offset="0%" stop-color="#FFF8E7"/>
      <stop offset="50%" stop-color="#D4BC7A"/>
      <stop offset="100%" stop-color="#8B6F2E"/>
    </radialGradient>
  </defs>
  <rect width="88" height="88" rx="20" fill="#FAF8F5"/>
  <circle cx="44" cy="44" r="34" fill="none" stroke="url(#kg)" stroke-width="1.8"/>
  <path d="M 18 46 Q 44 62 70 46" fill="none" stroke="url(#kg)" stroke-width="1" opacity="0.5"/>
  <path d="M 44 12 L 44 20" stroke="url(#kg)" stroke-width="1.5" stroke-linecap="round"/>
  <circle cx="44" cy="11" r="2" fill="none" stroke="url(#kg)" stroke-width="1.2"/>
  <path d="M 44 16 L 48 22 L 44 28 L 40 22 Z" fill="url(#gem)"/>
  <g fill="none" stroke="#2C2420" stroke-width="2.6" stroke-linecap="round" stroke-linejoin="round">
    <path d="M 34 30 L 34 58"/>
    <path d="M 34 44 C 34 44 42 30 52 30"/>
    <path d="M 34 44 C 34 44 42 58 54 58"/>
  </g>
  <path d="M 62 20 L 63.2 22 L 65.5 22.2 L 63.8 23.6 L 64.2 26 L 62 24.6 L 59.8 26 L 60.2 23.6 L 58.5 22.2 L 60.8 22 Z" fill="#D4BC7A"/>
</svg>
