<svg xmlns="http://www.w3.org/2000/svg" viewBox="0 0 200 240" width="200" height="240" role="img" aria-label="Kwanzou">
  <defs>
    <linearGradient id="gold" x1="0%" y1="0%" x2="100%" y2="100%">
      <stop offset="0%" stop-color="#F7E8B8"/><stop offset="50%" stop-color="#C9A962"/><stop offset="100%" stop-color="#8F7428"/>
    </linearGradient>
    <radialGradient id="gem" cx="38%" cy="32%" r="68%">
      <stop offset="0%" stop-color="#FFF"/><stop offset="100%" stop-color="#7A6420"/>
    </radialGradient>
    <filter id="glow"><feGaussianBlur stdDeviation="1.5" result="b"/><feMerge><feMergeNode in="b"/><feMergeNode in="SourceGraphic"/></feMerge></filter>
  </defs>
  <rect width="200" height="240" rx="24" fill="#F5F0EB"/>
  <g transform="translate(100, 95)">
    <circle r="72" fill="none" stroke="url(#gold)" stroke-width="2.5"/>
    <g fill="#2C2420">
      <ellipse cx="18" cy="-40" rx="16" ry="14"/>
      <path d="M 34 -50 C 14 -50, -2 -36, -8 -18 C -12 -4, -8 8, 2 14 C 10 18, 18 16, 24 10 C 28 4, 24 -4, 18 -10 C 12 -20, 20 -32, 34 -38 Z"/>
      <path d="M 8 14 C 6 24, 10 34, 20 40 C 32 48, 52 50, 64 44 C 72 40, 76 32, 72 26 C 62 28, 48 32, 34 26 C 22 20, 14 16, 8 14 Z"/>
      <path d="M 24 10 C 18 2, 10 -4, 2 -8 C -4 -10, -8 -8, -10 -2 C -12 6, -10 14, -2 18 C 4 20, 12 18, 16 12 Z"/>
    </g>
    <circle cx="-6" cy="-8" r="12" fill="none" stroke="url(#gold)" stroke-width="3"/>
    <path d="M -6 4 L -6 14 L -2 22 L -10 22 Z" fill="url(#gem)" filter="url(#glow)"/>
    <ellipse cx="18" cy="38" rx="12" ry="14" fill="url(#gem)" stroke="url(#gold)" stroke-width="2.5" filter="url(#glow)"/>
    <ellipse cx="-6" cy="38" rx="14" ry="5" fill="none" stroke="url(#gold)" stroke-width="3.5"/>
    <ellipse cx="-6" cy="44" rx="13" ry="4" fill="none" stroke="url(#gold)" stroke-width="2"/>
  </g>
  <text x="100" y="188" text-anchor="middle" font-family="'Segoe Script', cursive" font-size="36" fill="#2C2420">Kwanzou</text>
  <text x="100" y="214" text-anchor="middle" font-family="Georgia, serif" font-size="11" font-weight="700" fill="url(#gold)" letter-spacing="6">ACCESSORIES</text>
</svg>
