<svg xmlns="http://www.w3.org/2000/svg" viewBox="0 0 360 88" width="360" height="88" role="img" aria-label="Kwanzou Accessories">
  <defs>
    <linearGradient id="kg" x1="0%" y1="0%" x2="100%" y2="100%">
      <stop offset="0%" stop-color="#E8D5A0"/>
      <stop offset="50%" stop-color="#C9A962"/>
      <stop offset="100%" stop-color="#A8893E"/>
    </linearGradient>
    <radialGradient id="gem" cx="50%" cy="35%" r="65%">
      <stop offset="0%" stop-color="#FFF8E7"/>
      <stop offset="50%" stop-color="#D4BC7A"/>
      <stop offset="100%" stop-color="#8B6F2E"/>
    </radialGradient>
  </defs>
  <rect width="360" height="88" rx="12" fill="#2C2420"/>
  <g transform="translate(6, 6)">
    <ellipse cx="38" cy="38" rx="30" ry="30" fill="none" stroke="url(#kg)" stroke-width="1.6"/>
    <path d="M 14 42 Q 38 58 62 42" fill="none" stroke="url(#kg)" stroke-width="1.1" opacity="0.55"/>
    <path d="M 38 10 L 38 18" stroke="url(#kg)" stroke-width="1.4" stroke-linecap="round"/>
    <circle cx="38" cy="9" r="2.2" fill="none" stroke="url(#kg)" stroke-width="1.2"/>
    <path d="M 38 14 L 42 20 L 38 26 L 34 20 Z" fill="url(#gem)"/>
  </g>
  <g fill="none" stroke="#FAF8F5" stroke-width="2.4" stroke-linecap="round" stroke-linejoin="round">
    <path d="M 28 24 L 28 52"/>
    <path d="M 28 38 C 28 38 36 24 46 24"/>
    <path d="M 28 38 C 28 38 36 52 48 52"/>
  </g>
  <text x="92" y="40" font-family="Georgia, serif" font-size="30" font-weight="600" fill="#FAF8F5" letter-spacing="5">KWANZOU</text>
  <text x="94" y="58" font-family="Arial, sans-serif" font-size="11" font-weight="500" fill="#C9A962" letter-spacing="7.5">ACCESSORIES</text>
  <text x="94" y="76" font-family="Arial, sans-serif" font-size="8.5" fill="#D4BC7A" letter-spacing="4.2" opacity="0.85">GOLD · STYLE · EGYPT</text>
</svg>
